<svg xmlns="http://www.w3.org/2000/svg" version="1.1" xmlns:xlink="http://www.w3.org/1999/xlink" xmlns:svgjs="http://svgjs.dev/svgjs" width="1650" height="700" preserveAspectRatio="none" viewBox="0 0 1650 700"><g mask="url(&quot;#SvgjsMask1036&quot;)" fill="none"><rect width="1650" height="700" x="0" y="0" fill="rgba(255, 255, 255, 1)"></rect><path d="M1760 700L0 700 L0 426.94Q33.45 322.89, 137.5 356.35Q195.51 331.86, 220 389.87Q281.9 314.27, 357.5 376.17Q469.36 350.53, 495 462.39Q548.31 378.19, 632.5 431.5Q692.26 353.76, 770 413.52Q853.79 359.81, 907.5 443.6Q945 343.61, 1045 381.11Q1103.61 302.22, 1182.5 360.82Q1255.45 351.27, 1265 424.22Q1329.99 406.71, 1347.5 471.7Q1358.79 345.49, 1485 356.77Q1565.33 299.6, 1622.5 379.92Q1709.61 329.53, 1760 416.64z" fill="rgba(77, 136, 255, 1)"></path><path d="M1677.5 700L0 700 L0 446.43Q80.71 444.64, 82.5 525.36Q129.78 490.14, 165 537.43Q183.18 473.11, 247.5 491.29Q277.37 438.66, 330 468.53Q390.46 391.49, 467.5 451.95Q524.01 425.97, 550 482.48Q596.38 391.37, 687.5 437.75Q763.98 376.73, 825 453.2Q877.58 423.27, 907.5 475.85Q930.86 416.71, 990 440.06Q1069.81 382.37, 1127.5 462.18Q1234.11 431.28, 1265 537.89Q1320.59 455.98, 1402.5 511.56Q1478.81 450.37, 1540 526.67Q1620.34 469.5, 1677.5 549.84z" fill="rgba(166, 199, 255, 1)"></path><path d="M1677.5 700L0 700 L0 561.82Q79.69 504.01, 137.5 583.7Q158.72 522.42, 220 543.65Q275.38 516.53, 302.5 571.91Q408.88 540.78, 440 647.16Q478.43 548.09, 577.5 586.51Q616.51 488.02, 715 527.04Q771.89 501.43, 797.5 558.33Q910.41 533.75, 935 646.66Q945.56 574.72, 1017.5 585.29Q1057.41 487.7, 1155 527.61Q1236.55 471.66, 1292.5 553.21Q1400.23 523.44, 1430 631.18Q1442.93 561.61, 1512.5 574.54Q1546.05 525.59, 1595 559.14Q1659.04 540.67, 1677.5 604.71z" fill="rgba(49, 134, 237, 1)"></path><path d="M1760 700L0 700 L0 636.78Q55.77 610.05, 82.5 665.82Q102.75 603.58, 165 623.83Q220.13 596.46, 247.5 651.58Q332.64 599.22, 385 684.36Q472.86 634.72, 522.5 722.57Q557.5 620.07, 660 655.07Q757.34 614.91, 797.5 712.26Q830.55 662.81, 880 695.85Q885.92 619.27, 962.5 625.19Q997.87 578.06, 1045 613.43Q1105.16 591.1, 1127.5 651.26Q1221.7 607.96, 1265 702.17Q1323.19 622.86, 1402.5 681.05Q1443.79 584.84, 1540 626.13Q1586.88 590.51, 1622.5 637.39Q1703.53 580.92, 1760 661.95z" fill="rgba(255, 255, 255, 1)"></path></g><defs><mask id="SvgjsMask1036"><rect width="1650" height="700" fill="#ffffff"></rect></mask></defs></svg>